. 
  
http://www.torrentday.com/        :     The Hottest Private Tracker On The Net!!!
 
http://www.torrentday.com          :     Once & For all ;)


               www . TorrentDay . Com 

(((((((((((((= Enjoy No RAR releases =))))))))))))))))))))


...................................NFO:....................................

.[pre]  
    *********** ****    ****      ***      ******** *********** ****    *** **********
           *+*     +*+*+* *+*+*+   *+* *+*   *+*    *+*    *+*     *+*+*   *+* *+*        
           +*+     +*+ +*+*+ +*+  +*+   +*+  +*+           +*+     *+*+*+  +*+ +*+        
           +$+     +$+  +*+  +$+ +$++*++$++* *$*           +$+     +$+ +*+ +$+ +$++*++$  
           +$+     +$+       +$+ +$+     +$+ +$+   +$+$    +$+     +$+  +$+$+$ +$+        
           $+$     $+$       $+$ $+$     $+$ $+$    $+$    $+$     $+$   $+$+$ $+$        
       $$$$$$$$$$$ $$$       $$$ $$$     $$$  $$$$$$$$ $$$$$$$$$$$ $$$    $$$$ $$$$$$$$$$     
                                                



                           Another Fine Release Brought to you from - IMAGiNE                   
                                                 

********************************************************************************************************************                                
                                Paul CAM READNFO XViD v2 - IMAGiNE
********************************************************************************************************************

Ripper ...........:IMAGiNE                                             IMDB Rating.......:7.8/10                             
Video Codec.......:XVID                                             Release Date......:19/02/11
Audio Codec.......:MP3                                              Theatre Date......:18/03/11
Audio Bitrate.....:128                                                  Runtime...........:1h 35mn
Subtitles.........:NIL                                                       Language..........:ENGLISH
Resolution........:720 x 304                                        IMDb URL..........:http://www.imdb.com/title/tt1092026/


[color=yellow]DETAILS:[/color]

Video
ID                               : 0
Format                           : MPEG-4 Visual
Format profile                   : Advanced Simple@L5
Format settings, BVOP            : Yes
Format settings, QPel            : No
Format settings, GMC             : No warppoints
Format settings, Matrix          : Default (MPEG)
Muxing mode                      : Packed bitstream
Codec ID                         : XVID
Codec ID/Hint                    : XviD
Duration                         : 1h 35mn
Bit rate                         : 2 929 Kbps
Width                            : 720 pixels
Height                           : 304 pixels
Display aspect ratio             : 2.35
Frame rate                       : 25.000 fps
Resolution                       : 24 bits
Colorimetry                      : 4:2:0
Scan type                        : Progressive
Bits/(Pixel*Frame)               : 0.535
Stream size                      : 1.95 GiB (95%)
Writing library                  : XviD 61

Audio
ID                               : 1
Format                           : MPEG Audio
Format version                   : Version 1
Format profile                   : Layer 3
Codec ID                         : 55
Codec ID/Hint                    : MP3
Duration                         : 1h 35mn
Bit rate mode                    : Constant
Bit rate                         : 128 Kbps
Channel(s)                       : 2 channels
Sampling rate                    : 44.1 KHz
Resolution                       : 16 bits
Stream size                      : 87.3 MiB (4%)
Alignment                        : Split accross interleaves
Interleave, duration             : 40 ms (1.00 video frame)
Interleave, preload duration     : 500 ms


[color=yellow]SOURCES:[/color]

VIDEO: TaRiQ786 720p files...Thanks  
AUDIO: TaRiQ786 720p files...Thanks   

[color=yellow]NOTES:[/color]

Well here we go with our v2 .....after sitting back and watching the release,i thought shame about the
camera movements so we've opted to go the extra distance with this one :P
What we've done is took the 720p source files and cut them up into 7-8 files,where there is camera movement...
ranging from 2 secs to 20 secs and then we cropped and resized them all to match.
By doing this you get max video footage possible,but AR can go a little off but not by much at all.

Heres a screen compare so you can want we mean:
 
http://screenshotcomparison.com/comparison/29566

Also by doing this now you can read all the subbed parts and not just the top of them...check sample ;-)
And finally we've filtered slightly different on this release compared to v1.

Anyway enjoy folks ....

[color=yellow]SCREENS:[/color]



[color=yellow]GREETS:[/color]

FLAWL3SS,ViSiON,FUSiON,Rx,SecretMyth,BirdFlu,ELEKTRI4KA and Autotron
And to all the other p2p grps past and present 

[COLOR=RED]Looking for these,syncers,cammers,silver supplier.....Have anything to offer????......
Contact us imaginegroup@hushmail.com[/COLOR][/pre]